<mxfile host="Electron" agent="Mozilla/5.0 (Windows NT 10.0; Win64; x64) AppleWebKit/537.36 (KHTML, like Gecko) draw.io/28.0.6 Chrome/138.0.7204.100 Electron/37.2.3 Safari/537.36" version="28.0.6">
  <diagram name="Page-1" id="o9OS4ro9A9LKD5RJ_DnT">
    <mxGraphModel dx="1090" dy="835" grid="1" gridSize="10" guides="1" tooltips="1" connect="1" arrows="1" fold="1" page="1" pageScale="1" pageWidth="850" pageHeight="1100" math="0" shadow="0">
      <root>
        <mxCell id="0" />
        <mxCell id="1" parent="0" />
        <mxCell id="fU15-0LrNMcZ3OywFuiV-9" style="edgeStyle=orthogonalEdgeStyle;rounded=0;orthogonalLoop=1;jettySize=auto;html=1;exitX=0.5;exitY=1;exitDx=0;exitDy=0;entryX=0.5;entryY=0;entryDx=0;entryDy=0;" edge="1" parent="1" source="fU15-0LrNMcZ3OywFuiV-1" target="fU15-0LrNMcZ3OywFuiV-2">
          <mxGeometry relative="1" as="geometry" />
        </mxCell>
        <mxCell id="fU15-0LrNMcZ3OywFuiV-1" value="Saw the question" style="rounded=0;whiteSpace=wrap;html=1;" vertex="1" parent="1">
          <mxGeometry x="370" y="80" width="120" height="60" as="geometry" />
        </mxCell>
        <mxCell id="fU15-0LrNMcZ3OywFuiV-2" value="&lt;span style=&quot;color: rgb(255, 255, 255); font-family: Helvetica; font-size: 12px; font-style: normal; font-variant-ligatures: normal; font-variant-caps: normal; font-weight: 400; letter-spacing: normal; orphans: 2; text-align: center; text-indent: 0px; text-transform: none; widows: 2; word-spacing: 0px; -webkit-text-stroke-width: 0px; white-space: normal; background-color: rgb(27, 29, 30); text-decoration-thickness: initial; text-decoration-style: initial; text-decoration-color: initial; display: inline !important; float: none;&quot;&gt;Read it about 10 times because I did not understand it&lt;/span&gt;" style="rounded=0;whiteSpace=wrap;html=1;" vertex="1" parent="1">
          <mxGeometry x="370" y="170" width="120" height="60" as="geometry" />
        </mxCell>
        <mxCell id="fU15-0LrNMcZ3OywFuiV-11" style="edgeStyle=orthogonalEdgeStyle;rounded=0;orthogonalLoop=1;jettySize=auto;html=1;exitX=0.5;exitY=1;exitDx=0;exitDy=0;entryX=0.5;entryY=0;entryDx=0;entryDy=0;" edge="1" parent="1" source="fU15-0LrNMcZ3OywFuiV-3" target="fU15-0LrNMcZ3OywFuiV-7">
          <mxGeometry relative="1" as="geometry" />
        </mxCell>
        <mxCell id="fU15-0LrNMcZ3OywFuiV-12" style="edgeStyle=orthogonalEdgeStyle;rounded=0;orthogonalLoop=1;jettySize=auto;html=1;exitX=0.75;exitY=1;exitDx=0;exitDy=0;entryX=0.5;entryY=0;entryDx=0;entryDy=0;" edge="1" parent="1" source="fU15-0LrNMcZ3OywFuiV-3" target="fU15-0LrNMcZ3OywFuiV-8">
          <mxGeometry relative="1" as="geometry" />
        </mxCell>
        <mxCell id="fU15-0LrNMcZ3OywFuiV-3" value="understood the question" style="rounded=0;whiteSpace=wrap;html=1;" vertex="1" parent="1">
          <mxGeometry x="370" y="260" width="120" height="60" as="geometry" />
        </mxCell>
        <mxCell id="fU15-0LrNMcZ3OywFuiV-4" value="the word list is a string array" style="rounded=0;whiteSpace=wrap;html=1;" vertex="1" parent="1">
          <mxGeometry x="220" y="480" width="120" height="60" as="geometry" />
        </mxCell>
        <mxCell id="fU15-0LrNMcZ3OywFuiV-5" value="I get the length of he string array" style="rounded=0;whiteSpace=wrap;html=1;" vertex="1" parent="1">
          <mxGeometry x="60" y="480" width="120" height="60" as="geometry" />
        </mxCell>
        <mxCell id="fU15-0LrNMcZ3OywFuiV-6" value="the word&amp;nbsp;is a string" style="rounded=0;whiteSpace=wrap;html=1;" vertex="1" parent="1">
          <mxGeometry x="580" y="480" width="120" height="60" as="geometry" />
        </mxCell>
        <mxCell id="fU15-0LrNMcZ3OywFuiV-13" style="edgeStyle=orthogonalEdgeStyle;rounded=0;orthogonalLoop=1;jettySize=auto;html=1;exitX=0.5;exitY=1;exitDx=0;exitDy=0;entryX=0.5;entryY=0;entryDx=0;entryDy=0;" edge="1" parent="1" source="fU15-0LrNMcZ3OywFuiV-7" target="fU15-0LrNMcZ3OywFuiV-4">
          <mxGeometry relative="1" as="geometry" />
        </mxCell>
        <mxCell id="fU15-0LrNMcZ3OywFuiV-16" style="edgeStyle=orthogonalEdgeStyle;rounded=0;orthogonalLoop=1;jettySize=auto;html=1;exitX=0.25;exitY=1;exitDx=0;exitDy=0;entryX=0.5;entryY=0;entryDx=0;entryDy=0;" edge="1" parent="1" source="fU15-0LrNMcZ3OywFuiV-7" target="fU15-0LrNMcZ3OywFuiV-5">
          <mxGeometry relative="1" as="geometry" />
        </mxCell>
        <mxCell id="fU15-0LrNMcZ3OywFuiV-18" style="edgeStyle=orthogonalEdgeStyle;rounded=0;orthogonalLoop=1;jettySize=auto;html=1;exitX=0.75;exitY=1;exitDx=0;exitDy=0;entryX=0.5;entryY=0;entryDx=0;entryDy=0;" edge="1" parent="1" source="fU15-0LrNMcZ3OywFuiV-7" target="fU15-0LrNMcZ3OywFuiV-17">
          <mxGeometry relative="1" as="geometry" />
        </mxCell>
        <mxCell id="fU15-0LrNMcZ3OywFuiV-7" value="I have a list of words" style="rounded=0;whiteSpace=wrap;html=1;" vertex="1" parent="1">
          <mxGeometry x="280" y="370" width="120" height="60" as="geometry" />
        </mxCell>
        <mxCell id="fU15-0LrNMcZ3OywFuiV-14" style="edgeStyle=orthogonalEdgeStyle;rounded=0;orthogonalLoop=1;jettySize=auto;html=1;exitX=0.5;exitY=1;exitDx=0;exitDy=0;entryX=0.5;entryY=0;entryDx=0;entryDy=0;" edge="1" parent="1" source="fU15-0LrNMcZ3OywFuiV-8" target="fU15-0LrNMcZ3OywFuiV-6">
          <mxGeometry relative="1" as="geometry" />
        </mxCell>
        <mxCell id="fU15-0LrNMcZ3OywFuiV-19" style="edgeStyle=orthogonalEdgeStyle;rounded=0;orthogonalLoop=1;jettySize=auto;html=1;exitX=0.5;exitY=1;exitDx=0;exitDy=0;entryX=0.5;entryY=0;entryDx=0;entryDy=0;" edge="1" parent="1" source="fU15-0LrNMcZ3OywFuiV-8" target="fU15-0LrNMcZ3OywFuiV-17">
          <mxGeometry relative="1" as="geometry" />
        </mxCell>
        <mxCell id="fU15-0LrNMcZ3OywFuiV-8" value="I have the word to find in the word list" style="rounded=0;whiteSpace=wrap;html=1;" vertex="1" parent="1">
          <mxGeometry x="490" y="370" width="120" height="60" as="geometry" />
        </mxCell>
        <mxCell id="fU15-0LrNMcZ3OywFuiV-10" style="edgeStyle=orthogonalEdgeStyle;rounded=0;orthogonalLoop=1;jettySize=auto;html=1;exitX=0.5;exitY=1;exitDx=0;exitDy=0;entryX=0.503;entryY=0.131;entryDx=0;entryDy=0;entryPerimeter=0;" edge="1" parent="1" source="fU15-0LrNMcZ3OywFuiV-2" target="fU15-0LrNMcZ3OywFuiV-3">
          <mxGeometry relative="1" as="geometry" />
        </mxCell>
        <mxCell id="fU15-0LrNMcZ3OywFuiV-17" value="Use wordlist to find how many times the &quot;word&quot; is present" style="rounded=0;whiteSpace=wrap;html=1;" vertex="1" parent="1">
          <mxGeometry x="360" y="590" width="160" height="60" as="geometry" />
        </mxCell>
        <mxCell id="fU15-0LrNMcZ3OywFuiV-20" value="The words in the wordlist when checked with the &quot;word&quot; is case-insensitive" style="rounded=0;whiteSpace=wrap;html=1;" vertex="1" parent="1">
          <mxGeometry x="360" y="690" width="160" height="60" as="geometry" />
        </mxCell>
        <mxCell id="fU15-0LrNMcZ3OywFuiV-21" style="edgeStyle=orthogonalEdgeStyle;rounded=0;orthogonalLoop=1;jettySize=auto;html=1;exitX=0.5;exitY=1;exitDx=0;exitDy=0;entryX=0.499;entryY=-0.065;entryDx=0;entryDy=0;entryPerimeter=0;" edge="1" parent="1" source="fU15-0LrNMcZ3OywFuiV-17" target="fU15-0LrNMcZ3OywFuiV-20">
          <mxGeometry relative="1" as="geometry" />
        </mxCell>
      </root>
    </mxGraphModel>
  </diagram>
</mxfile>
